<?xml version="1.0" standalone="no"?>
<!DOCTYPE svg PUBLIC "-//W3C//DTD SVG 20010904//EN"
 "http://www.w3.org/TR/2001/REC-SVG-20010904/DTD/svg10.dtd">
<svg version="1.0" xmlns="http://www.w3.org/2000/svg"
 width="400.000000pt" height="400.000000pt" viewBox="0 0 400.000000 400.000000"
 preserveAspectRatio="xMidYMid meet">
<metadata>
Created by potrace 1.11, written by Peter Selinger 2001-2013
</metadata>
<g transform="translate(0.000000,400.000000) scale(0.100000,-0.100000)"
fill="#000000" stroke="none">
<path d="M1870 3989 c-288 -17 -549 -91 -812 -232 -946 -502 -1325 -1671 -854
-2632 291 -593 833 -993 1492 -1101 148 -24 447 -25 599 -1 878 137 1557 824
1680 1698 21 149 21 412 0 555 -97 662 -505 1225 -1100 1515 -318 154 -647
219 -1005 198z m-794 -332 c-10 -7 -69 -44 -130 -84 -61 -40 -97 -60 -79 -45
33 28 212 142 222 141 3 0 -2 -6 -13 -12z m44 -22 c0 -2 -13 -11 -30 -20 -38
-19 -40 -11 -2 9 31 17 32 18 32 11z m30 -30 c0 -2 -13 -11 -30 -20 -38 -19
-40 -11 -2 9 31 17 32 18 32 11z m-100 -9 c0 -1 -33 -25 -72 -51 -40 -26 -91
-61 -113 -77 l-40 -30 35 32 c30 26 179 130 187 130 2 0 3 -2 3 -4z m150 -11
c0 -2 -18 -14 -40 -25 -22 -11 -40 -18 -40 -15 0 2 17 13 38 24 42 23 42 23
42 16z m79 -9 c-10 -9 -129 -66 -129 -61 0 6 111 64 124 65 5 0 7 -2 5 -4z
m-199 -10 c0 -2 -24 -19 -52 -36 -29 -18 -78 -51 -108 -73 -30 -23 -49 -33
-41 -24 13 16 187 137 197 137 2 0 4 -2 4 -4z m29 -30 c-12 -12 -159 -105
-159 -101 0 6 150 105 158 105 3 0 3 -2 1 -4z m180 0 c-10 -9 -129 -66 -129
-61 0 6 111 64 124 65 5 0 7 -2 5 -4z m-149 -30 c0 -2 -19 -15 -42 -29 -24
-14 -78 -50 -120 -81 -43 -30 -78 -53 -78 -51 0 7 139 108 190 138 47 28 50
29 50 23z m-310 -9 c0 -2 -10 -12 -22 -23 l-23 -19 19 23 c18 21 26 27 26 19z
m469 -1 c-10 -9 -109 -56 -109 -51 0 6 91 54 104 55 5 0 7 -2 5 -4z m-149 -30
c0 -2 -17 -15 -37 -27 -21 -12 -69 -45 -108 -72 -38 -27 -61 -40 -50 -29 18
18 183 132 192 132 1 0 3 -2 3 -4z m-380 -19 c0 -2 -10 -12 -22 -23 l-23 -19
19 23 c18 21 26 27 26 19z m50 -10 c0 -2 -12 -14 -27 -28 l-28 -24 24 28 c23
25 31 32 31 24z m359 -1 c-12 -12 -159 -105 -159 -101 0 6 150 105 158 105 3
0 3 -2 1 -4z m91 0 c0 -2 -7 -7 -16 -10 -8 -3 -12 -2 -9 4 6 10 25 14 25 6z
m-330 -10 c0 -2 -21 -20 -47 -41 l-48 -37 45 41 c45 41 50 45 50 37z m-80 -9
c0 -2 -12 -14 -27 -28 l-28 -24 24 28 c23 25 31 32 31 24z m349 -11 c-2 -3
-40 -28 -84 -56 -44 -29 -100 -68 -125 -88 -25 -20 -36 -26 -25 -13 19 22 219
161 232 161 4 0 4 -2 2 -4z m18 -39 c-144 -93 -177 -113 -152 -92 30 26 156
105 165 104 3 0 -3 -6 -13 -12z m-437 -10 c0 -2 -12 -14 -27 -28 l-28 -24 24
28 c23 25 31 32 31 24z m50 -10 c0 -2 -15 -16 -32 -33 l-33 -29 29 33 c28 30
36 37 36 29z m430 -2 c0 -2 -13 -11 -30 -20 -38 -19 -40 -11 -2 9 31 17 32 18
32 11z m-380 -8 c0 -2 -15 -16 -32 -33 l-33 -29 29 33 c28 30 36 37 36 29z
m120 -11 c0 -2 -21 -20 -47 -41 l-48 -37 45 41 c45 41 50 45 50 37z m-80 -9
c0 -2 -12 -14 -27 -28 l-28 -24 24 28 c23 25 31 32 31 24z m356 -10 c-109 -69
-199 -130 -231 -158 -22 -18 -31 -23 -20 -10 32 37 245 182 264 180 3 0 -3 -6
-13 -12z m-86 -1 c0 -2 -24 -19 -54 -39 -29 -19 -80 -57 -112 -83 -32 -26 -48
-35 -35 -21 21 23 187 147 197 147 2 0 4 -2 4 -4z m130 -21 c0 -2 -15 -12 -32
-21 -18 -9 -67 -39 -108 -66 -41 -27 -61 -37 -45 -23 25 22 173 115 182 115 2
0 3 -2 3 -5z m90 -5 c-8 -5 -19 -10 -25 -10 -5 0 -3 5 5 10 8 5 20 10 25 10 6
0 3 -5 -5 -10z m-40 -14 c0 -2 -33 -22 -72 -44 -40 -22 -101 -61 -135 -86 -35
-25 -63 -44 -63 -41 0 10 111 88 186 130 81 46 84 48 84 41z m-340 -19 c0 -2
-26 -25 -57 -51 l-58 -48 54 51 c52 48 61 55 61 48z m399 -1 c-10 -9 -129 -66
-129 -61 0 6 111 64 124 65 5 0 7 -2 5 -4z m-539 -9 c0 -2 -17 -19 -37 -38
l-38 -34 34 38 c33 34 41 42 41 34z m50 -10 c0 -2 -17 -19 -37 -38 l-38 -34
34 38 c33 34 41 42 41 34z m499 -21 c-10 -9 -109 -56 -109 -51 0 6 91 54 104
55 5 0 7 -2 5 -4z m-154 -34 c-25 -22 -146 -101 -140 -92 7 11 136 100 144
100 3 0 1 -4 -4 -8z m164 -6 c-10 -9 -89 -46 -89 -41 0 6 72 44 84 45 5 0 7
-2 5 -4z m-349 -19 c0 -2 -10 -12 -22 -23 l-23 -19 19 23 c18 21 26 27 26 19z
m220 -1 c0 -2 -26 -20 -57 -41 -32 -21 -78 -53 -103 -72 l-45 -35 40 37 c36
32 151 115 161 115 2 0 4 -2 4 -4z m139 -20 c-10 -9 -69 -36 -69 -32 0 7 52
35 64 36 5 0 7 -2 5 -4z m-499 -51 c-24 -25 -46 -45 -49 -45 -3 0 15 20 39 45
24 25 46 45 49 45 3 0 -15 -20 -39 -45z m389 41 c-2 -2 -39 -27 -81 -56 -43
-28 -115 -85 -160 -127 l-83 -75 82 80 c69 67 221 182 241 182 3 0 3 -2 1 -4z
m-299 -9 c0 -2 -19 -21 -42 -42 l-43 -40 40 43 c36 39 45 47 45 39z m40 -20
c0 -2 -17 -19 -37 -38 l-38 -34 34 38 c33 34 41 42 41 34z m289 -1 c-2 -3 -38
-27 -79 -54 -41 -27 -100 -70 -130 -96 l-55 -48 55 53 c30 29 88 74 129 101
64 41 95 59 80 44z m71 -10 c0 -2 -7 -7 -16 -10 -8 -3 -12 -2 -9 4 6 10 25 14
25 6z m-320 -9 c0 -2 -12 -14 -27 -28 l-28 -24 24 28 c23 25 31 32 31 24z
m280 -11 c0 -2 -28 -20 -61 -41 -34 -21 -87 -58 -118 -83 -31 -25 -49 -38 -41
-28 19 24 114 96 170 129 47 28 50 29 50 23z m140 -26 c-8 -5 -19 -10 -25 -10
-5 0 -3 5 5 10 8 5 20 10 25 10 6 0 3 -5 -5 -10z m-110 -5 c0 -2 -18 -14 -39
-25 -22 -11 -70 -42 -108 -70 -56 -42 -60 -44 -24 -11 24 21 71 55 105 75 63
38 66 39 66 31z m-390 -28 c0 -2 -10 -12 -22 -23 l-23 -19 19 23 c18 21 26 27
26 19z m60 0 c0 -1 -24 -25 -52 -52 l-53 -50 50 53 c46 48 55 57 55 49z m450
-7 c-8 -5 -19 -10 -25 -10 -5 0 -3 5 5 10 8 5 20 10 25 10 6 0 3 -5 -5 -10z
m-111 -4 c-2 -3 -39 -27 -81 -55 -42 -27 -112 -82 -155 -122 l-78 -72 78 77
c42 42 111 99 153 126 66 43 98 61 83 46z m30 -30 c-2 -3 -39 -27 -82 -55 -42
-28 -98 -70 -125 -93 -26 -23 -36 -30 -22 -14 31 35 119 103 180 139 42 25 59
33 49 23z m24 -41 c-83 -44 -132 -77 -188 -124 -27 -24 -28 -24 -10 -3 38 45
237 172 270 172 6 0 -27 -20 -72 -45z m20 -34 c-75 -40 -155 -96 -234 -166
-25 -22 -19 -14 15 19 34 32 81 72 106 89 54 38 161 97 175 97 6 -1 -23 -18
-62 -39z m-353 6 c0 -2 -12 -14 -27 -28 l-28 -24 24 28 c23 25 31 32 31 24z
m50 -10 c0 -1 -24 -25 -52 -52 l-53 -50 50 53 c46 48 55 57 55 49z m325 -30
c-90 -49 -152 -94 -230 -166 -60 -56 -63 -58 -20 -12 28 29 75 72 105 96 57
44 177 115 195 115 6 0 -17 -15 -50 -33z m6 -43 c-85 -47 -122 -75 -206 -153
-63 -58 -61 -56 10 15 73 73 219 174 250 174 5 0 -19 -16 -54 -36z m4 -45
c-38 -22 -90 -57 -115 -77 -36 -28 -40 -30 -20 -8 26 29 176 126 194 126 6 0
-21 -18 -59 -41z m135 21 c-8 -5 -19 -10 -25 -10 -5 0 -3 5 5 10 8 5 20 10 25
10 6 0 3 -5 -5 -10z m-410 -13 c0 -2 -10 -12 -22 -23 l-23 -19 19 23 c18 21
26 27 26 19z m349 -11 c-2 -2 -15 -9 -29 -15 -24 -11 -24 -11 -6 3 16 13 49
24 35 12z m-419 -9 c0 -2 -15 -16 -32 -33 l-33 -29 29 33 c28 30 36 37 36 29z
m490 -7 c-8 -5 -19 -10 -25 -10 -5 0 -3 5 5 10 8 5 20 10 25 10 6 0 3 -5 -5
-10z m386 -11 c306 -42 561 -277 625 -574 18 -82 15 -245 -5 -328 -62 -258
-262 -465 -521 -539 -112 -31 -278 -31 -390 0 -236 68 -422 243 -500 472 -56
166 -56 307 1 481 69 206 247 384 457 454 127 42 212 51 333 34z m-516 -3 c0
-2 -24 -19 -52 -38 -29 -19 -80 -59 -113 -88 l-60 -52 58 56 c61 59 167 137
167 122z m70 -10 c0 -2 -7 -7 -16 -10 -8 -3 -12 -2 -9 4 6 10 25 14 25 6z
m-40 -19 c0 -2 -23 -19 -51 -37 -29 -18 -81 -60 -118 -93 l-66 -60 68 68 c68
65 167 138 167 122z m-400 -21 c0 -2 -8 -10 -17 -17 -16 -13 -17 -12 -4 4 13
16 21 21 21 13z m190 -29 c0 -2 -12 -14 -27 -28 l-28 -24 24 28 c23 25 31 32
31 24z m-60 -70 c0 -2 -10 -12 -22 -23 l-23 -19 19 23 c18 21 26 27 26 19z
m20 -41 c0 -2 -8 -10 -17 -17 -16 -13 -17 -12 -4 4 13 16 21 21 21 13z m1310
-1050 c0 -2 -8 -10 -17 -17 -16 -13 -17 -12 -4 4 13 16 21 21 21 13z m-100
-52 c-51 -52 -145 -121 -207 -153 -76 -38 -60 -22 26 26 46 27 114 76 150 110
78 73 94 82 31 17z m120 12 c0 -2 -8 -10 -17 -17 -16 -13 -17 -12 -4 4 13 16
21 21 21 13z m-60 -9 c0 -2 -19 -21 -42 -42 l-43 -40 40 43 c36 39 45 47 45
39z m25 -88 c-71 -72 -156 -135 -242 -178 -93 -46 -91 -37 2 12 99 52 164 99
235 171 30 31 57 56 59 56 3 0 -21 -27 -54 -61z m-15 38 c0 -2 -10 -12 -22
-23 l-23 -19 19 23 c18 21 26 27 26 19z m45 -68 c-58 -59 -162 -138 -222 -168
-62 -31 -52 -18 15 19 70 40 154 104 207 159 21 23 41 41 44 41 3 0 -17 -23
-44 -51z m-180 6 c-38 -33 -163 -105 -181 -105 -5 0 25 19 66 41 41 23 91 54
110 70 49 40 53 35 5 -6z m69 4 c-25 -28 -116 -90 -181 -123 -79 -40 -78 -31
2 12 79 42 155 93 174 116 8 9 16 16 19 16 3 0 -3 -10 -14 -21z m136 -44 c-24
-25 -46 -45 -49 -45 -3 0 15 20 39 45 24 25 46 45 49 45 3 0 -15 -20 -39 -45z
m120 12 c0 -2 -10 -12 -22 -23 l-23 -19 19 23 c18 21 26 27 26 19z m-80 -30
c0 -2 -10 -12 -22 -23 l-23 -19 19 23 c18 21 26 27 26 19z m-460 -17 c-8 -5
-19 -10 -25 -10 -5 0 -3 5 5 10 8 5 20 10 25 10 6 0 3 -5 -5 -10z m505 -51
c-28 -27 -73 -68 -101 -90 -60 -46 -212 -139 -228 -139 -6 0 18 16 54 36 102
57 177 111 249 180 79 76 95 84 26 13z m-156 25 c-14 -17 -108 -83 -149 -104
-40 -20 -20 -5 61 48 42 28 80 55 83 61 4 6 10 11 13 11 3 0 -1 -7 -8 -16z
m45 -15 c-21 -24 -126 -100 -164 -119 -38 -19 -23 -7 60 48 42 28 84 60 94 71
11 12 21 21 24 21 3 0 -3 -10 -14 -21z m50 -10 c-34 -36 -136 -115 -176 -135
-48 -25 -31 -9 36 35 35 22 86 61 113 86 56 51 70 59 27 14z m-434 11 c-8 -5
-19 -10 -25 -10 -5 0 -3 5 5 10 8 5 20 10 25 10 6 0 3 -5 -5 -10z m520 -45
c-24 -25 -46 -45 -49 -45 -3 0 15 20 39 45 24 25 46 45 49 45 3 0 -15 -20 -39
-45z m40 -19 c0 -2 -8 -10 -17 -17 -16 -13 -17 -12 -4 4 13 16 21 21 21 13z
m-470 -31 c-14 -8 -29 -14 -35 -14 -5 0 1 6 15 14 14 8 30 14 35 14 6 0 -1 -6
-15 -14z m354 -16 c-36 -40 -259 -178 -269 -167 -2 2 30 21 70 42 41 22 105
63 142 92 76 58 84 63 57 33z m196 18 c0 -1 -26 -27 -57 -57 l-58 -55 55 58
c50 53 60 62 60 54z m-140 -20 c0 -2 -12 -14 -27 -28 l-28 -24 24 28 c23 25
31 32 31 24z m60 0 c0 -2 -17 -19 -37 -38 l-38 -34 34 38 c33 34 41 42 41 34z
m-460 -22 c-14 -8 -29 -14 -35 -14 -5 0 1 6 15 14 14 8 30 14 35 14 6 0 -1 -6
-15 -14z m85 -5 c-3 -5 -12 -10 -18 -10 -7 0 -6 4 3 10 19 12 23 12 15 0z
m475 7 c0 -2 -19 -21 -42 -42 l-43 -40 40 43 c36 39 45 47 45 39z m-440 -32
c0 -6 -56 -35 -67 -35 -4 1 8 9 27 20 39 22 40 22 40 15z m214 -6 c-9 -15
-126 -90 -191 -123 -86 -43 -74 -29 17 20 46 25 105 60 130 79 51 38 54 40 44
24z m36 -24 c-28 -34 -251 -166 -277 -165 -4 1 26 18 67 40 41 21 107 61 145
88 78 56 83 59 65 37z m41 -19 c-32 -39 -294 -196 -306 -184 -2 2 38 25 88 51
51 26 121 69 157 96 70 53 79 59 61 37z m59 1 c0 -2 -12 -14 -27 -28 l-28 -24
24 28 c23 25 31 32 31 24z m24 -38 c-25 -28 -139 -110 -199 -144 -71 -41 -55
-27 65 53 58 38 114 79 124 91 11 12 21 21 24 21 3 0 -3 -9 -14 -21z m21 -36
c-55 -50 -170 -131 -225 -157 -38 -18 -37 -17 89 65 47 31 106 75 131 97 25
23 47 41 50 41 3 0 -17 -20 -45 -46z m95 34 c0 -2 -17 -19 -37 -38 l-38 -34
34 38 c33 34 41 42 41 34z m-206 -18 c-12 -20 -204 -138 -204 -126 0 3 35 25
78 49 42 25 88 55 102 66 28 24 34 27 24 11z m256 8 c0 -2 -17 -19 -37 -38
l-38 -34 34 38 c33 34 41 42 41 34z m-145 -77 c-23 -25 -150 -113 -195 -134
-19 -9 -26 -11 -16 -4 11 7 58 39 106 70 48 31 93 64 100 73 7 8 15 15 18 15
3 0 -3 -9 -13 -20z m45 -15 c-28 -34 -240 -177 -240 -162 0 3 30 23 68 45 37
23 92 61 122 86 59 48 70 54 50 31z m40 -20 c-19 -23 -149 -118 -205 -150 -70
-40 -54 -26 50 43 50 33 106 74 125 90 38 34 49 40 30 17z m60 2 c0 -2 -15
-16 -32 -33 l-33 -29 29 33 c28 30 36 37 36 29z m50 -10 c0 -2 -15 -16 -32
-33 l-33 -29 29 33 c28 30 36 37 36 29z m40 -20 c0 -2 -12 -14 -27 -28 l-28
-24 24 28 c23 25 31 32 31 24z m-610 -27 c-8 -5 -19 -10 -25 -10 -5 0 -3 5 5
10 8 5 20 10 25 10 6 0 3 -5 -5 -10z m441 -14 c-14 -16 -144 -107 -181 -126
-39 -20 -22 -7 77 59 51 34 95 66 98 71 4 6 9 10 12 10 3 0 0 -6 -6 -14z m49
-11 c0 -7 -158 -124 -192 -141 -48 -25 -31 -7 30 30 31 20 80 53 107 75 53 43
55 44 55 36z m-480 -15 c-8 -5 -19 -10 -25 -10 -5 0 -3 5 5 10 8 5 20 10 25
10 6 0 3 -5 -5 -10z m530 7 c0 -2 -12 -14 -27 -28 l-28 -24 24 28 c23 25 31
32 31 24z m40 -20 c0 -2 -12 -14 -27 -28 l-28 -24 24 28 c23 25 31 32 31 24z
m-560 -27 c-8 -5 -19 -10 -25 -10 -5 0 -3 5 5 10 8 5 20 10 25 10 6 0 3 -5 -5
-10z m600 7 c0 -2 -12 -14 -27 -28 l-28 -24 24 28 c23 25 31 32 31 24z m-149
-21 c-27 -32 -301 -199 -301 -182 0 3 31 21 69 41 39 20 107 63 153 95 91 64
96 66 79 46z m199 11 c0 -2 -12 -14 -27 -28 l-28 -24 24 28 c23 25 31 32 31
24z m-500 -12 c0 -6 -56 -35 -67 -35 -4 1 8 9 27 20 39 22 40 22 40 15z m341
-19 c-25 -30 -271 -188 -271 -174 0 3 39 28 88 57 48 28 110 69 137 91 54 42
64 48 46 26z m189 0 c0 -2 -8 -10 -17 -17 -16 -13 -17 -12 -4 4 13 16 21 21
21 13z m-500 -11 c0 -6 -76 -45 -87 -45 -4 1 12 12 37 25 50 27 50 27 50 20z
m351 -8 c-28 -34 -281 -200 -281 -184 0 2 35 25 78 50 43 26 107 69 143 96 68
53 78 59 60 38z m49 -10 c0 -2 -10 -12 -22 -23 l-23 -19 19 23 c18 21 26 27
26 19z m-370 -12 c0 -6 -117 -65 -127 -65 -4 1 21 16 57 35 72 38 70 37 70 30z
m410 -8 c0 -2 -10 -12 -22 -23 l-23 -19 19 23 c18 21 26 27 26 19z m-380 -22
c0 -6 -117 -65 -127 -65 -4 1 21 16 57 35 72 38 70 37 70 30z m281 -9 c-14
-17 -162 -116 -208 -140 -59 -30 -35 -10 45 38 42 25 97 61 122 80 50 38 58
43 41 22z m139 11 c0 -2 -10 -12 -22 -23 l-23 -19 19 23 c18 21 26 27 26 19z
m-100 -31 c-24 -30 -250 -176 -250 -163 0 2 37 27 83 54 45 28 102 67 127 86
49 39 59 44 40 23z m140 10 c0 -2 -8 -10 -17 -17 -16 -13 -17 -12 -4 4 13 16
21 21 21 13z m-90 -19 c0 -2 -10 -12 -22 -23 l-23 -19 19 23 c18 21 26 27 26
19z m30 -31 c0 -2 -8 -10 -17 -17 -16 -13 -17 -12 -4 4 13 16 21 21 21 13z
m-80 -10 c0 -8 -122 -92 -175 -120 -55 -30 -54 -29 79 61 101 68 96 65 96 59z
m36 -25 c-14 -22 -226 -161 -226 -148 0 3 30 23 68 46 37 23 87 57 112 75 49
38 54 41 46 27z m-280 -136 c-11 -8 -25 -15 -30 -15 -6 1 0 7 14 15 32 19 40
18 16 0z m24 -30 c0 -6 -56 -35 -67 -35 -4 1 8 9 27 20 39 22 40 22 40 15z"/>
<path d="M1862 2576 c-206 -50 -383 -225 -437 -431 -38 -148 -8 -335 75 -464
270 -418 891 -345 1062 125 27 73 36 241 18 323 -45 208 -232 396 -441 446
-110 26 -110 25 -107 -47 3 -60 4 -62 33 -68 49 -11 110 -46 143 -85 58 -65
66 -91 67 -200 l0 -99 -55 -27 c-90 -45 -104 -45 -123 0 -9 20 -28 44 -42 51
-17 9 -22 17 -15 24 5 5 10 52 10 102 0 71 -4 96 -16 108 -20 21 -48 20 -69
-1 -14 -14 -17 -33 -13 -119 3 -99 3 -104 -19 -115 -13 -7 -31 -30 -40 -51
-20 -45 -28 -45 -122 -2 l-53 24 4 102 c4 111 14 140 70 203 33 39 94 74 143
85 29 6 30 8 33 68 l3 62 -28 -1 c-15 0 -52 -6 -81 -13z m187 -490 c44 -23 64
-84 40 -128 -9 -17 -8 -19 8 -15 10 3 38 11 63 17 25 7 62 21 82 31 l38 19 0
-117 c0 -142 -19 -194 -95 -261 -117 -103 -297 -90 -398 29 -51 59 -67 114
-67 235 l0 102 65 -24 c36 -13 74 -24 84 -24 10 0 31 -11 47 -25 29 -25 89
-43 101 -31 4 3 -3 6 -15 6 -76 0 -125 82 -88 149 26 47 84 63 135 37z"/>
<path d="M2040 1910 c-9 -6 -10 -10 -3 -10 6 0 15 5 18 10 8 12 4 12 -15 0z"/>
</g>
</svg>
